<svg height="1024pt" preserveAspectRatio="xMidYMid meet" viewBox="0 0 1024 1024" width="1024pt" xmlns="http://www.w3.org/2000/svg"><g transform="matrix(.1 0 0 -.1 0 1024)"><path d="m0 5120v-5120h5120 5120v5120 5120h-5120-5120zm2020 1516c312-67 545-238 670-491 61-123 75-187 74-350 0-109-5-159-22-228-59-236-206-428-412-536l-68-36 309-534c170-293 309-535 309-537 0-3-106-3-236-2l-235 3-257 493-256 492-211-2-210-3-3-492-2-493h-220-220v1371 1371l458-5c369-4 471-8 532-21zm2880-146v-170h-625-625v-430-430l568-2 567-3 3-152 3-153h-571-570v-445-445h625 625v-170-170h-855-855v1363c0 750 3 1367 7 1370 3 4 388 7 855 7h848zm3278-1032 2-1198 628-2 627-3 3-167 2-168h-860-860v1363c0 750 3 1367 7 1371 4 3 106 5 227 4l221-3zm-1673 1175c7-19 869-2494 916-2631l28-82-231 2-231 3-98 280-97 280-511 3-512 2-18-42c-9-24-55-152-102-285l-84-243h-233c-129 0-232 4-230 9 2 4 217 618 478 1364l475 1357h221c202 0 222-2 229-17z"/><path d="m1475 6308c-3-7-4-251-3-543l3-530 195-3c314-5 401 15 512 117 93 86 140 207 153 396 8 110-12 234-50 311-66 134-209 233-368 254-116 15-436 13-442-2z"/><path d="m6075 5383c-109-313-200-574-202-580-4-10 80-13 402-13 321 0 406 3 403 13-2 6-92 267-198 580-107 312-197 567-200 567-4 0-96-255-205-567z"/></g></svg>
